#define cc_width 50
#define cc_height 50
static unsigned char cc_bits[] = {
   0x00, 0x00, 0x00, 0x00, 0x00, 0x00, 0x00, 0x00, 0x00, 0x00, 0x00, 0x00,
   0x00, 0x00, 0x00, 0x00, 0x00, 0x00, 0x00, 0x00, 0x00, 0x00, 0x00, 0x00,
   0x00, 0x00, 0x00, 0x00, 0x00, 0x00, 0x00, 0x00, 0x00, 0x00, 0x00, 0x00,
   0x00, 0x00, 0x00, 0x00, 0x00, 0x00, 0x00, 0x00, 0x00, 0x00, 0x00, 0x00,
   0x00, 0x00, 0x00, 0x00, 0x00, 0x00, 0x00, 0x00, 0x00, 0x00, 0x00, 0x00,
   0x00, 0x00, 0x00, 0x00, 0x00, 0x00, 0x00, 0x00, 0x00, 0x00, 0x00, 0x00,
   0x00, 0x00, 0x00, 0x00, 0x00, 0x00, 0x00, 0x00, 0x00, 0x00, 0x00, 0x00,
   0x00, 0x00, 0x00, 0x00, 0x00, 0x00, 0x00, 0x00, 0x00, 0x00, 0x00, 0x00,
   0x00, 0x00, 0x00, 0x00, 0x00, 0x00, 0x00, 0x00, 0x00, 0x00, 0x80, 0x16,
   0x00, 0xd0, 0x02, 0x00, 0x00, 0xe0, 0xff, 0x00, 0xfc, 0x1f, 0x00, 0x00,
   0xf8, 0xff, 0x01, 0xff, 0x3f, 0x00, 0x00, 0xfe, 0xff, 0xc0, 0xff, 0x1f,
   0x00, 0x00, 0x7e, 0xc0, 0xc0, 0x0f, 0x18, 0x00, 0x00, 0x3f, 0x00, 0xe0,
   0x07, 0x00, 0x00, 0x80, 0x0f, 0x00, 0xf0, 0x01, 0x00, 0x00, 0xc0, 0x0f,
   0x00, 0xf8, 0x01, 0x00, 0x00, 0xc0, 0x07, 0x00, 0xf8, 0x00, 0x00, 0x00,
   0xc0, 0x07, 0x00, 0xf8, 0x00, 0x00, 0x00, 0xc0, 0x07, 0x00, 0xf8, 0x00,
   0x00, 0x00, 0xe0, 0x03, 0x00, 0x7c, 0x00, 0x00, 0x00, 0xe0, 0x07, 0x00,
   0xfc, 0x00, 0x00, 0x00, 0xe0, 0x07, 0x00, 0xfc, 0x00, 0x00, 0x00, 0xc0,
   0x07, 0x00, 0xf8, 0x00, 0x00, 0x00, 0xc0, 0x0f, 0x00, 0xf8, 0x01, 0x00,
   0x00, 0xc0, 0x1f, 0x30, 0xf8, 0x03, 0x06, 0x00, 0x80, 0xff, 0x3f, 0xf0,
   0xff, 0x07, 0x00, 0x00, 0xff, 0x3f, 0xe0, 0xff, 0x03, 0x00, 0x00, 0xfe,
   0x1f, 0xc0, 0xff, 0x03, 0x00, 0x00, 0xe8, 0x01, 0x00, 0x3d, 0x00, 0x00,
   0x00, 0x00, 0x00, 0x00, 0x00, 0x00, 0x00, 0x00, 0x00, 0x00, 0x00, 0x00,
   0x00, 0x00, 0x00, 0x00, 0x00, 0x00, 0x00, 0x00, 0x00, 0xf0, 0xff, 0xff,
   0xff, 0xff, 0x3f, 0x00, 0x00, 0x00, 0x00, 0x00, 0x00, 0x00, 0x00, 0x00,
   0x00, 0x00, 0x00, 0x00, 0x00, 0x00, 0x00, 0x00, 0x00, 0x00, 0x00, 0x00,
   0x00, 0x00, 0x00, 0x00, 0x00, 0x00, 0x00, 0x00, 0x00, 0x00, 0x00, 0x00,
   0x00, 0x00, 0x00, 0x00, 0x00, 0x00, 0x00, 0x00, 0x00, 0x00, 0x00, 0x00,
   0x00, 0x00, 0x00, 0x00, 0x00, 0x00, 0x00, 0x00, 0x00, 0x00, 0x00, 0x00,
   0x00, 0x00, 0x00, 0x00, 0x00, 0x00, 0x00, 0x00, 0x00, 0x00, 0x00, 0x00,
   0x00, 0x00 };
